<?xml version="1.0" standalone="no"?>
<!DOCTYPE svg PUBLIC "-//W3C//DTD SVG 20010904//EN"
 "http://www.w3.org/TR/2001/REC-SVG-20010904/DTD/svg10.dtd">
<svg version="1.0" xmlns="http://www.w3.org/2000/svg"
 width="5689.000000pt" height="5689.000000pt" viewBox="0 0 5689.000000 5689.000000"
 preserveAspectRatio="xMidYMid meet">
<metadata>
Created by potrace 1.14, written by Peter Selinger 2001-2017
</metadata>
<g transform="translate(0.000000,5689.000000) scale(0.100000,-0.100000)"
fill="#000000" stroke="none">
<path d="M0 28445 l0 -28445 28445 0 28445 0 0 28445 0 28445 -28445 0 -28445
0 0 -28445z m29375 23195 c1142 -51 2225 -177 3305 -386 4914 -950 9394 -3557
12740 -7414 1941 -2238 3447 -4846 4417 -7650 245 -708 474 -1489 638 -2177
58 -247 60 -253 47 -253 -5 0 -23 62 -41 138 -100 424 -284 1081 -442 1577
-497 1563 -1178 3103 -2002 4525 -2479 4280 -6281 7637 -10777 9516 -2228 931
-4568 1483 -6975 1644 -545 36 -812 44 -1480 45 -645 0 -910 -8 -1420 -40
-2234 -144 -4426 -627 -6510 -1435 -4563 -1770 -8450 -5038 -11042 -9285 -549
-900 -1071 -1910 -1485 -2874 -502 -1169 -928 -2444 -1208 -3611 l-47 -195
-366 -3 c-254 -1 -367 1 -367 8 0 23 114 487 186 760 576 2172 1458 4239 2629
6165 1444 2375 3319 4487 5495 6191 3267 2558 7128 4153 11195 4624 663 77
1281 119 2075 144 203 6 1198 -3 1435 -14z m16565 -19085 c136 -21 172 -32
166 -53 -2 -9 -23 -120 -46 -247 -24 -126 -45 -233 -49 -236 -3 -4 -58 4 -121
17 -130 27 -332 34 -438 14 -286 -51 -453 -229 -516 -547 -31 -160 -37 -330
-30 -891 l7 -545 459 5 458 4 2 -228 c0 -125 1 -234 2 -240 1 -10 -99 -15
-453 -20 -250 -4 -456 -9 -458 -12 -3 -2 5 -771 16 -1707 11 -936 19 -1704 17
-1707 -2 -2 -133 -6 -290 -9 l-286 -6 0 234 c-1 196 -37 3179 -39 3187 -1 1
-183 2 -405 2 l-403 0 -6 68 c-4 37 -7 144 -7 238 l0 171 408 7 c224 4 407 8
408 9 1 1 -2 243 -5 537 -6 551 -1 774 19 895 89 524 348 862 765 998 174 57
299 75 540 76 122 1 224 -4 285 -14z m-8860 -455 c379 -48 708 -178 1010 -399
80 -58 293 -267 288 -282 -4 -11 -448 -379 -466 -386 -8 -3 -27 11 -45 33
-113 141 -264 267 -431 362 -214 123 -485 181 -786 169 -509 -21 -933 -269
-1114 -651 -76 -161 -107 -357 -88 -553 14 -151 32 -217 87 -328 102 -207 308
-385 588 -507 50 -22 340 -123 642 -223 599 -199 705 -239 868 -322 304 -156
498 -324 661 -575 97 -150 151 -291 188 -498 30 -165 30 -486 0 -650 -35 -193
-87 -336 -182 -501 -287 -497 -813 -801 -1505 -870 -148 -15 -459 -6 -605 16
-490 76 -895 259 -1205 546 -119 110 -256 263 -254 285 0 5 115 96 256 203
213 161 257 191 265 177 25 -44 124 -166 189 -233 287 -294 608 -444 1009
-473 436 -31 855 112 1122 383 251 255 353 556 308 907 -53 404 -307 688 -794
884 -45 18 -272 95 -506 171 -625 202 -824 280 -1015 395 -266 160 -445 347
-578 600 -108 205 -149 397 -150 705 -1 235 14 336 75 522 96 293 317 574 598
762 296 198 635 307 1070 345 76 7 410 -3 500 -14z m-15760 -195 c250 -39 424
-91 626 -190 202 -98 357 -206 502 -351 68 -68 122 -128 120 -133 -1 -5 -108
-96 -237 -202 l-234 -193 -24 30 c-94 111 -147 164 -227 229 -275 222 -553
315 -937 315 -395 0 -726 -123 -969 -360 -101 -100 -158 -177 -215 -296 -110
-231 -121 -570 -25 -826 42 -113 153 -258 269 -352 190 -152 300 -201 951
-417 766 -254 881 -302 1126 -464 248 -165 458 -418 555 -670 116 -300 130
-758 34 -1090 -122 -420 -439 -785 -859 -989 -483 -235 -1101 -287 -1671 -141
-336 86 -623 232 -878 445 -89 75 -236 228 -287 300 l-20 28 42 35 c24 18 140
107 258 197 l214 162 16 -23 c173 -263 464 -499 749 -606 88 -33 238 -69 348
-84 150 -19 413 -8 557 25 253 58 438 150 614 304 147 129 288 351 333 527 27
104 37 333 19 454 -50 341 -256 598 -628 785 -138 69 -198 91 -672 245 -681
221 -871 299 -1081 439 -188 126 -310 245 -423 411 -168 246 -237 493 -237
846 0 263 38 465 122 645 256 547 784 888 1509 975 148 18 513 12 660 -10z
m-7460 -217 c0 -9 -1657 -5898 -1665 -5915 0 -1 -160 -5 -355 -9 l-355 -6
-770 2522 c-423 1387 -773 2524 -776 2525 -4 3 -1165 -4124 -1420 -5049 l-10
-36 -354 0 -354 0 -20 68 c-11 37 -419 1358 -905 2937 -632 2050 -881 2872
-873 2877 7 4 151 7 322 5 l309 -2 752 -2505 c414 -1378 756 -2516 759 -2530
5 -19 8 -21 14 -10 4 8 324 1157 712 2552 l704 2536 360 4 c198 2 361 3 362 3
3 -1 1533 -5043 1533 -5052 0 -45 114 368 706 2549 l688 2538 190 3 c105 1
248 3 319 5 96 1 127 -1 127 -10z m10664 -1315 c4 -301 8 -548 9 -548 1 -1
247 1 547 5 300 4 546 6 547 6 1 -1 3 -109 4 -241 l3 -240 -544 -7 c-298 -4
-545 -10 -548 -13 -9 -9 18 -2262 29 -2388 11 -146 31 -230 76 -326 85 -180
229 -252 498 -252 138 1 254 25 401 85 48 19 90 33 94 31 7 -4 36 -468 30
-482 -4 -13 -148 -61 -245 -82 -153 -34 -244 -44 -415 -44 -175 -1 -288 14
-411 54 -288 95 -503 337 -572 644 -31 135 -36 287 -47 1195 -5 503 -13 1060
-16 1238 l-6 323 -402 -2 -401 -1 -3 240 -2 239 400 5 c220 2 401 6 403 9 1 2
0 247 -4 544 -4 297 -5 543 -2 548 2 4 131 7 287 7 l283 0 7 -547z m24101
-184 c407 -45 786 -226 1056 -506 95 -98 143 -158 208 -257 147 -225 254 -525
297 -831 17 -119 29 -544 17 -563 -7 -10 -350 -16 -1614 -32 -882 -11 -1607
-20 -1611 -20 -11 0 0 -107 23 -230 104 -550 513 -984 1054 -1119 354 -88 780
-28 1071 150 175 107 384 297 474 431 25 37 48 66 52 65 16 -5 427 -323 428
-331 0 -17 -132 -165 -256 -286 -298 -289 -626 -454 -1060 -532 -113 -20 -160
-23 -384 -22 -235 0 -266 2 -392 27 -643 126 -1141 513 -1419 1103 -234 495
-264 1130 -78 1660 117 337 347 665 614 879 428 342 928 479 1520 414z m-7177
-80 c646 -70 1097 -427 1238 -979 48 -190 50 -249 64 -1450 6 -465 15 -915 21
-1000 11 -170 33 -376 49 -459 19 -101 45 -92 -247 -89 l-258 3 -17 105 c-9
58 -22 166 -28 240 -7 74 -15 168 -19 208 l-6 73 -75 -103 c-92 -125 -258
-293 -368 -371 -255 -182 -594 -277 -986 -277 -409 1 -760 125 -1006 357 -181
170 -288 369 -330 613 -19 109 -17 366 3 471 31 157 82 281 162 394 57 80 193
210 290 275 238 161 612 279 1060 335 188 24 645 54 933 61 206 6 265 10 269
21 10 26 -17 332 -37 418 -39 167 -101 292 -197 396 -129 138 -298 224 -526
265 -124 23 -405 22 -542 -1 -325 -54 -638 -202 -841 -398 -29 -27 -57 -48
-62 -46 -9 4 -113 121 -277 313 l-50 58 57 53 c275 256 735 456 1158 504 52 6
109 13 125 15 71 8 354 5 443 -5z m-13068 -178 c329 -66 594 -202 783 -401
214 -226 322 -489 352 -860 3 -36 9 -465 15 -955 13 -1092 27 -1408 75 -1660
7 -38 11 -72 8 -75 -5 -6 -513 -14 -513 -8 0 1 -11 80 -25 173 -14 94 -28 234
-32 313 -3 78 -9 142 -12 142 -4 0 -40 -46 -81 -102 -135 -183 -318 -350 -488
-445 -330 -184 -810 -248 -1226 -162 -281 59 -483 164 -668 349 -224 225 -317
461 -318 805 0 343 95 586 310 788 228 215 545 350 1025 436 218 39 636 75
1005 86 102 3 232 8 289 11 l104 6 -6 152 c-10 250 -58 428 -157 578 -122 185
-331 311 -600 359 -96 18 -428 18 -535 1 -322 -52 -634 -200 -848 -401 -35
-33 -61 -51 -67 -45 -5 5 -79 90 -165 189 l-155 180 57 53 c230 210 587 388
936 466 200 45 317 55 587 52 199 -3 265 -8 350 -25z m5758 -13 c-8 -38 -1882
-4934 -1940 -5068 -117 -273 -311 -542 -479 -666 -202 -148 -518 -214 -887
-184 -132 10 -288 32 -296 41 -2 2 9 119 23 259 21 210 29 255 41 254 8 -1 60
-11 115 -23 139 -31 316 -38 424 -17 163 31 274 103 382 248 97 130 167 287
354 784 l176 470 -855 1934 c-471 1064 -854 1935 -852 1937 2 2 145 6 318 10
l315 6 50 -119 c27 -65 335 -804 683 -1642 349 -837 637 -1519 641 -1515 5 6
1068 3002 1151 3245 l20 58 201 3 c111 1 251 3 311 5 108 2 108 2 104 -20z
m-17703 -108 c465 -54 869 -264 1149 -600 232 -278 368 -611 427 -1045 13 -96
19 -509 7 -520 -5 -5 -2648 -43 -3131 -45 l-98 0 6 -72 c4 -40 15 -116 26
-169 93 -472 398 -849 840 -1038 195 -83 387 -117 612 -108 234 9 448 63 617
154 211 114 439 324 576 531 2 4 390 -292 418 -318 18 -18 17 -20 -51 -102
-85 -100 -275 -286 -358 -349 -261 -200 -548 -321 -910 -386 -144 -25 -579
-25 -715 0 -601 112 -1054 417 -1355 911 -211 347 -305 698 -305 1141 0 426
123 842 345 1171 205 303 443 508 775 668 201 96 389 152 590 175 108 12 430
13 535 1z m-9625 -5287 c83 -525 276 -1407 450 -2063 516 -1935 1299 -3825
2302 -5560 1364 -2356 3136 -4448 5233 -6176 3427 -2824 7597 -4549 11970
-4950 732 -67 1235 -89 2045 -89 661 1 921 8 1475 45 3290 218 6501 1185 9375
2823 3459 1971 6345 4840 8363 8314 449 772 900 1670 1252 2493 572 1336 1031
2780 1335 4204 61 282 158 784 180 931 12 75 29 131 30 96 0 -22 -36 -230 -96
-548 -521 -2779 -1537 -5428 -3009 -7848 -1340 -2204 -3058 -4190 -5035 -5821
-3657 -3017 -8090 -4787 -12756 -5093 -547 -36 -840 -45 -1479 -45 -639 0
-932 9 -1479 45 -5959 391 -11510 3175 -15496 7769 -1584 1827 -2873 3890
-3833 6135 -660 1545 -1165 3215 -1476 4880 -52 279 -91 504 -91 524 0 8 98
11 364 11 l363 0 13 -77z"/>
<path d="M48124 29706 c-149 -25 -259 -62 -407 -138 -297 -153 -538 -423 -656
-738 -42 -111 -81 -280 -81 -349 l0 -41 53 0 c28 0 561 7 1182 15 622 8 1192
15 1269 15 l139 0 -7 73 c-32 333 -165 630 -378 846 -160 161 -332 250 -588
306 -103 22 -417 29 -526 11z"/>
<path d="M41765 28063 c-504 -29 -681 -51 -939 -118 -281 -72 -454 -161 -602
-309 -122 -122 -164 -229 -165 -413 0 -114 4 -148 32 -243 59 -207 264 -385
517 -450 159 -41 422 -52 582 -25 387 65 686 279 860 616 121 235 162 454 152
812 l-4 137 -191 -2 c-106 -1 -214 -3 -242 -5z"/>
<path d="M28670 27913 c-154 -3 -528 -31 -670 -49 -332 -43 -622 -127 -799
-234 -262 -157 -361 -315 -361 -575 0 -203 59 -353 190 -485 108 -108 260
-181 452 -217 129 -25 409 -24 533 0 427 85 747 365 894 780 60 170 72 257 78
535 l5 252 -103 -2 c-57 -1 -156 -3 -219 -5z"/>
<path d="M15975 29329 c-249 -32 -499 -146 -705 -322 -261 -222 -441 -566
-473 -899 l-5 -48 122 0 c66 0 627 7 1246 15 619 8 1160 15 1203 15 l79 0 -7
68 c-32 325 -156 612 -356 826 -187 200 -412 307 -724 345 -104 13 -279 12
-380 0z"/>
</g>
</svg>
